<svg xmlns="http://www.w3.org/2000/svg" viewBox="0 0 466.3 89.63">
  <defs>
    <style>
      .cls-1 {
        fill: #eab308;
      }
    </style>
  </defs>
  <g id="Layer_2" data-name="Layer 2">
    <g id="Layer_1-2" data-name="Layer 1">
      <g>
        <path class="cls-1" d="M27.45.89C42.75.89,49,4.29,57,15.38l.65-.24L54.89.24V0H1.05V.81C5.83.81,6.4,3.89,6.4,8.58V58.86c0,6.23-.89,9.23-6.4,9.23v.81H54.89l2.76-16.11-.57-.16C48.82,64.77,40.32,68,25.5,68H16.76V30.12h3.32c14.65,0,17.41,3.08,21.29,11.09h.49v-23h-.49c-2.59,8.42-6.64,11.09-21.29,11.09H16.76V.89Z"/>
        <path class="cls-1" d="M122.66,59.67V41.29c-.24-8.5-2.75-15.46-7.28-20.32s-11-7-18.14-7H95.78c-10.36.24-15.54,9.39-17.48,19.67V10.2a56.12,56.12,0,0,1-15.63,3.73v.81c5.42.4,5.1,3.88,5.1,10.68V59.59c-.08,5.83-1.13,8.5-6.4,8.5v.81h.49c5.59-.24,8.42-.4,11.58-.4,2.91,0,5.83.16,11.25.4v-.81c-5.1,0-6.31-2.51-6.39-8V41.86c.24-12.63,5.58-26.72,17.4-27.12H96c6.39,0,10.44,3,13,8.09S112.3,35,112.3,42.18V59.67c0,5.91-.65,8.42-6.4,8.42v.81c1.06-.08,2.19-.08,3.49-.16,2.18-.08,5.18-.16,8.66-.16s7.2.08,11,.32v-.81C123.8,68.09,122.74,65.42,122.66,59.67Z"/>
        <path class="cls-1" d="M147.85,54.49c0-1.86,2.75-2.92,8.18-3.24,14.33-.65,25.82-5.42,25.82-19,0-8.74-6.56-14.25-13.76-16.67a9.67,9.67,0,0,1,7-3.4,7.3,7.3,0,0,1,7.37,5.66h.57L186.31,6.8a21.13,21.13,0,0,0-3.57-.4c-6.39,0-11.49,3.64-15.78,8.9A41.48,41.48,0,0,0,158.13,14c-11.25,0-23.56,5.5-23.56,18.38,0,10.84,8.18,16.67,19.92,18-6.16.4-14.58,2.59-15.22,6.8a3.55,3.55,0,0,0-.09,1c0,1.3.17,4.86,7.86,6.16,10,1.94,31.17,1,31.17,11.09,0,8.82-10.36,13.11-19.76,13.52h-1.29a18.94,18.94,0,0,1-13-5,27.45,27.45,0,0,1-7.61-13.68L135.7,70l-3.23,12.15c6.71,4.77,16.75,7.45,25.5,7.45,12.87,0,28.09-4.29,28.09-17.09C186.06,54.08,147.85,60.72,147.85,54.49Zm-4-22a22.15,22.15,0,0,1,1-7c2.11-6.23,7.05-10.36,13.6-10.36,9.15,0,14,6.8,14,16.27,0,9.31-3.4,18.46-13.52,18.46C147.93,49.79,143.8,42.51,143.8,32.47Z"/>
        <path class="cls-1" d="M295,17.49h.57l3.24-11.17A15.47,15.47,0,0,0,295.37,6C288.89,6,284,9.55,279.5,14.82a47.19,47.19,0,0,0-8.83-1.3c-11.25,0-23.56,5.75-23.56,18.46,0,10.85,8.18,16.68,19.92,18-6.15.41-14.57,2.6-15.22,6.81a3.94,3.94,0,0,0-.08,1c0,1.29.24,4.85,7.93,6.15,10,1.62,31.09,1.21,31.09,11,0,9-16.92,13.52-26.31,13.52-14.09,0-27.77-6.47-30.36-26.47a24.6,24.6,0,0,1-.33-4.37V34.65c0-1-.08-1.94-.16-2.83-1.05-13.36-12.06-18-25.34-18-5.59,0-9.55,2.27-11.82,5.27a9.81,9.81,0,0,0-2.19,6.47,11.61,11.61,0,0,0,.89,4.13c1.06,2.92,4.38,5.91,9.31,6.89-10.76,1.7-20.07,6.23-20.07,16.35,0,10,7,16,18.94,16H204c10-.08,16.43-4.94,19.43-13.36,0,27.12,25.42,33.68,41.05,33.68,12.87,0,34.17-4.29,34.17-17.16,0-16.92-32.31-12.79-37.49-16.68a1.67,1.67,0,0,1-.73-1.3c0-1.78,2.75-2.91,8.18-3.32,14.33-.64,25.83-5.34,25.83-18.94,0-8.75-6.56-14.09-13.77-16.68a9.55,9.55,0,0,1,7-3.32C291.4,11.82,294.48,14.25,295,17.49Zm-71.65,28.9c0,14.9-7.53,20.4-16.92,20.4-8.18,0-11.66-4.85-11.66-13.19a16.74,16.74,0,0,1,1.46-7.29,15.09,15.09,0,0,1,9.07-7.93,31.37,31.37,0,0,1,6.23-1.54,47.45,47.45,0,0,1,8.26-.57c1.21,0,2.43.08,3.56.08Zm-2.43-11a102.64,102.64,0,0,0-13,.73c-8.42-.24-12.63-4.78-12.88-10.2a10.13,10.13,0,0,1,1.06-4.78c2.1-4.13,6.72-6.39,11.9-6.39,11.58.24,15.06,8.82,15.3,20.64Zm64-4.45c0,9.31-3.4,18.46-13.52,18.46-11,0-15.14-7.29-15.14-17.33a22.33,22.33,0,0,1,1.05-7c2.11-6.4,7.05-10.45,13.61-10.45C280.23,14.57,285,21.46,285,30.93Z"/>
        <path class="cls-1" d="M402.65,59.59V41.7c-.24-8.5-2.75-15.71-7.29-20.65s-11-7.21-18.21-7.21h-1.38c-10.2.25-15.54,9.4-17.49,19.68V7.29a88.9,88.9,0,0,1-10.77,8.5c-8.9,5.91-23.72,13-33.68,13a11.05,11.05,0,0,1-8.58-4,7.52,7.52,0,0,1-1.86-5.1,8.28,8.28,0,0,1,1.05-4c2.51-4.86,7.69-6.56,13.2-6.56a29,29,0,0,1,3.72.24,6.12,6.12,0,0,0-3.8,6c0,4,2.43,6.24,5.91,6.24a5.93,5.93,0,0,0,5.91-6.24c0-6.23-6.8-7.12-11.66-7.12-5.83,0-11.5,2.1-14,7a9.64,9.64,0,0,0-1.13,4.54,8.18,8.18,0,0,0,.49,2.83A10,10,0,0,0,307.84,28a9.64,9.64,0,0,0,5.59,1.62c5.42.41,5.18,3.89,5.18,10.69V59.59c0,5.75-1.13,8.42-6.48,8.42v.81c3.49-.24,7.13-.32,10.61-.32,4.94,0,9.47.08,12.71.32V68c-5.1,0-6.31-2.51-6.39-7.94V26.15a73.12,73.12,0,0,0,13.68-6.31c4,.32,4.77,2.43,5,6.39V59.51c0,5.83-1.14,8.5-6.4,8.5v.81c4.13-.24,8.83-.24,13-.24s8,0,10.28.24V68c-5.1,0-6.32-2.51-6.4-8V41.78c.25-12.63,5.59-26.72,17.41-27.13H376c6.4,0,10.45,3.16,13,8.34s3.32,12.39,3.32,19.6v17c0,5.91-.65,8.42-6.4,8.42v.81c1.05-.08,2.19-.08,3.48-.16,2.19-.08,5.18-.16,8.67-.16s7.2.08,11,.32V68C403.78,68,402.73,65.34,402.65,59.59Z"/>
        <path class="cls-1" d="M427.84,54.49c0-1.86,2.75-2.92,8.17-3.24,14.34-.65,25.83-5.42,25.83-19,0-8.74-6.56-14.25-13.76-16.67a9.65,9.65,0,0,1,7-3.4,7.3,7.3,0,0,1,7.37,5.66h.57L466.3,6.8a21.13,21.13,0,0,0-3.57-.4c-6.39,0-11.49,3.64-15.79,8.9A41.3,41.3,0,0,0,438.12,14c-11.25,0-23.56,5.5-23.56,18.38,0,10.84,8.18,16.67,19.92,18-6.16.4-14.58,2.59-15.22,6.8a3.55,3.55,0,0,0-.09,1c0,1.3.17,4.86,7.86,6.16,10,1.94,31.17,1,31.17,11.09,0,8.82-10.36,13.11-19.76,13.52h-1.29a18.94,18.94,0,0,1-13-5A27.45,27.45,0,0,1,416.5,70.2l-.81-.17-3.24,12.15c6.72,4.77,16.76,7.45,25.51,7.45,12.87,0,28.09-4.29,28.09-17.09C466.05,54.08,427.84,60.72,427.84,54.49Zm-4-22a22.15,22.15,0,0,1,1-7c2.11-6.23,7.05-10.36,13.6-10.36,9.15,0,14,6.8,14,16.27,0,9.31-3.4,18.46-13.52,18.46C427.92,49.79,423.79,42.51,423.79,32.47Z"/>
      </g>
    </g>
  </g>
</svg>
