<?xml version="1.0" encoding="utf-8"?>
<!-- Generator: Adobe Illustrator 26.2.1, SVG Export Plug-In . SVG Version: 6.00 Build 0)  -->
<svg version="1.1" id="Layer_1" xmlns="http://www.w3.org/2000/svg" xmlns:xlink="http://www.w3.org/1999/xlink" x="0px" y="0px"
	 viewBox="0 0 102.8 102.8" style="enable-background:new 0 0 102.8 102.8;" xml:space="preserve">
<g>
	<path d="M101.3,55.8L101.3,55.8c0.1-0.5,0.2-1,0.2-1.5l0,0c0.4,0,0.7-0.1,0.9-0.4c0.3-0.3,0.4-0.6,0.4-0.9c0-0.4-0.1-0.7-0.4-0.9
		c-0.2-0.3-0.6-0.4-0.9-0.4v-0.2c0-0.5,0-0.9,0-1.4c0.3,0,0.6-0.1,0.9-0.4c0.3-0.3,0.4-0.6,0.4-0.9c0-0.4-0.1-0.7-0.4-0.9
		c-0.3-0.3-0.6-0.4-0.9-0.4c-0.1,0-0.2,0-0.2,0h0.1c0-0.5-0.1-1-0.1-1.5h-0.2c0.4,0,0.7-0.1,0.9-0.4c0.3-0.3,0.4-0.6,0.4-0.9
		c0-0.4-0.1-0.7-0.4-0.9c-0.3-0.3-0.6-0.4-0.9-0.4c-0.1,0-0.1,0-0.2,0c-0.1-0.5-0.2-1-0.2-1.5c0.3,0,0.5-0.2,0.7-0.4
		c0.3-0.3,0.4-0.6,0.4-0.9c0-0.4-0.1-0.7-0.4-0.9c-0.3-0.3-0.6-0.4-0.9-0.4c-0.1,0-0.2,0-0.3,0c-0.1-0.5-0.2-1-0.4-1.5
		c0.2-0.1,0.4-0.2,0.6-0.3c0.3-0.3,0.4-0.6,0.4-0.9c0-0.4-0.1-0.7-0.4-0.9c-0.3-0.3-0.6-0.4-0.9-0.4c-0.2,0-0.3,0-0.4,0.1l0,0
		c-0.2-0.5-0.3-0.9-0.5-1.4c0,0-0.1,0-0.2,0c0.2-0.1,0.4-0.2,0.6-0.3c0.3-0.3,0.4-0.6,0.4-0.9c0-0.4-0.1-0.7-0.4-0.9
		c-0.3-0.3-0.6-0.4-0.9-0.4c-0.2,0-0.4,0-0.5,0.1c-0.2-0.5-0.4-0.9-0.6-1.4c0.1-0.1,0.2-0.1,0.3-0.2c0.3-0.3,0.4-0.6,0.4-0.9
		c0-0.4-0.1-0.7-0.4-0.9c-0.3-0.3-0.6-0.4-0.9-0.4c-0.2,0-0.4,0-0.6,0.1c-0.2-0.5-0.5-0.9-0.8-1.3c0.1-0.1,0.2-0.1,0.2-0.2
		c0.3-0.3,0.4-0.6,0.4-0.9c0-0.4-0.1-0.7-0.4-0.9c-0.3-0.3-0.6-0.4-0.9-0.4s-0.5,0.1-0.7,0.2l0,0c-0.3-0.4-0.6-0.9-0.9-1.3l0.1-0.1
		c0.3-0.3,0.4-0.6,0.4-0.9s-0.1-0.7-0.4-0.9c-0.3-0.3-0.6-0.4-0.9-0.4s-0.6,0.1-0.8,0.3c-0.3-0.4-0.7-0.8-1-1.2c0,0,0,0,0.1-0.1
		c0.3-0.3,0.4-0.6,0.4-0.9s-0.1-0.7-0.4-0.9c-0.3-0.3-0.6-0.4-0.9-0.4s-0.6,0.1-0.9,0.3c-0.2-0.2-0.4-0.5-0.7-0.7l0,0
		c0.3-0.3,0.4-0.6,0.4-0.9c0-0.4-0.1-0.7-0.4-0.9c-0.3-0.3-0.6-0.4-0.9-0.4c-0.4,0-0.7,0.1-0.9,0.4l-0.1,0.1c0,0,0-0.1,0.1-0.1
		c-0.4-0.3-0.7-0.7-1.1-1c0.2-0.2,0.3-0.5,0.3-0.9s-0.1-0.7-0.4-0.9c-0.3-0.3-0.6-0.4-0.9-0.4c-0.4,0-0.7,0.1-0.9,0.4
		c0,0,0,0.1-0.1,0.1c-0.4-0.3-0.8-0.6-1.2-0.9c0.2-0.2,0.3-0.5,0.3-0.8c0-0.4-0.1-0.7-0.4-0.9c-0.3-0.3-0.6-0.4-0.9-0.4
		s-0.7,0.1-0.9,0.4c-0.1,0.1-0.1,0.1-0.2,0.2c-0.4-0.3-0.8-0.6-1.2-0.8c0.1-0.2,0.2-0.4,0.2-0.7c0-0.4-0.1-0.7-0.4-0.9
		c-0.3-0.3-0.6-0.4-0.9-0.4s-0.8-0.5-1-0.2c-0.1,0.1-0.2,0.3-0.3,0.4c0-0.1,0-0.1,0.1-0.2c-0.4-0.3-0.9-0.5-1.3-0.7
		c0,0,0,0.1-0.1,0.1c0.1-0.2,0.2-0.5,0.2-0.7c0-0.4-0.1-0.7-0.4-0.9c-0.3-0.3-0.6-0.4-0.9-0.4c-0.4,0-0.7,0.1-0.9,0.4
		c-0.2,0.1-0.3,0.2-0.3,0.3c-0.5-0.2-0.9-0.4-1.4-0.6C71,4.8,71,4.7,71,4.5c0-0.4-0.1-0.7-0.4-0.9c-0.3-0.3-0.6-0.4-0.9-0.4
		c-0.4,0-0.7,0.1-0.9,0.4c-0.1,0.1-0.2,0.3-0.3,0.5c-0.5-0.2-1-0.3-1.5-0.5v0.1c0.1-0.1,0.1-0.3,0.1-0.5c0-0.4-0.1-0.7-0.4-0.9
		c-0.3-0.3-0.6-0.4-0.9-0.4c-0.4,0-0.7,0.1-0.9,0.4c-0.2,0.2-0.3,0.4-0.3,0.6c-0.5-0.1-1-0.3-1.5-0.4c0-0.1,0-0.2,0-0.3
		c0-0.4-0.1-0.7-0.4-0.9c-0.4-0.3-0.7-0.5-1-0.5c-0.4,0-0.7,0.1-0.9,0.4c-0.3,0.3-0.5,0.6-0.5,0.9c0-0.1,0-0.2,0-0.2
		c-0.5-0.1-1-0.2-1.5-0.2c0-0.1,0-0.1,0-0.2c0-0.4-0.1-0.7-0.4-0.9c-0.3-0.3-0.6-0.4-0.9-0.4c-0.4,0-0.7,0.1-0.9,0.4
		c-0.2,0.2-0.3,0.5-0.4,0.8c-0.5,0-1-0.1-1.5-0.1l0,0c0-0.4-0.1-0.7-0.4-0.9C54,0.1,53.7,0,53.4,0c-0.4,0-0.7,0.1-0.9,0.4
		c-0.2,0.2-0.4,0.5-0.4,0.9h-1.5c0-0.3-0.1-0.7-0.4-0.9C49.9,0.1,49.6,0,49.3,0c-0.4,0-0.7,0.1-0.9,0.4C48.1,0.7,48,1,48,1.3
		c0,0.1,0,0.1,0,0.2V1.4c-0.5,0-1,0.1-1.5,0.1v0.1c0-0.4-0.1-0.7-0.4-0.9c-0.3-0.3-0.6-0.4-0.9-0.4c-0.4,0-0.7,0.1-0.9,0.4
		C44,1,43.9,1.3,43.9,1.6c0,0.1,0,0.1,0,0.2c-0.5,0.1-1,0.2-1.5,0.2c0,0.1,0,0.2,0,0.2c0-0.4-0.1-0.7-0.4-0.9
		c-0.4-0.3-0.7-0.5-1.1-0.5S40.2,0.9,40,1.2c-0.3,0.3-0.4,0.6-0.4,0.9c0,0.1,0,0.2,0,0.3c-0.5,0.1-1,0.2-1.5,0.3v0.1
		c-0.1-0.2-0.2-0.5-0.4-0.7c-0.3-0.3-0.6-0.4-0.9-0.4c-0.4,0-0.7,0.1-0.9,0.4c-0.3,0.3-0.4,0.6-0.4,0.9c0,0.1,0,0.3,0.1,0.4
		c-0.5,0.2-1,0.3-1.5,0.5c-0.1-0.2-0.2-0.3-0.3-0.5C33.5,3.1,33.2,3,32.9,3c-0.4,0-0.7,0.1-0.9,0.4c-0.3,0.3-0.4,0.6-0.4,0.9
		c0,0.2,0,0.3,0.1,0.5c-0.5,0.2-0.9,0.4-1.4,0.6c0,0,0,0,0,0.1c-0.1-0.2-0.2-0.3-0.3-0.4c-0.3-0.3-0.6-0.4-0.9-0.4S28.4,5,28.2,5.2
		c-0.3,0.3-0.4,0.6-0.4,0.9c0,0.2,0.1,0.4,0.2,0.6c-0.5,0.2-0.9,0.5-1.4,0.7c-0.1-0.1-0.1-0.2-0.2-0.3c-0.3-0.3-0.6-0.4-0.9-0.4
		s-0.7,0.3-1,0.5c-0.3,0.3-0.4,0.6-0.4,0.9s0.1,0.5,0.2,0.7c-0.4,0.3-0.9,0.6-1.3,0.9c0-0.1-0.1-0.1-0.1-0.2
		c-0.3-0.3-0.6-0.4-0.9-0.4s-0.7,0.1-0.9,0.4c-0.3,0.3-0.4,0.6-0.4,0.9s0.1,0.7,0.4,0.9L21,11.2c-0.4,0.3-0.8,0.6-1.2,1l-0.1-0.1
		c-0.3-0.3-0.6-0.4-0.9-0.4c-0.4,0-0.7,0.1-0.9,0.4c-0.3,0.3-0.4,0.6-0.4,0.9c0,0.3,0.1,0.7,0.3,0.9c-0.4,0.3-0.7,0.6-1.1,1l0,0
		c-0.3-0.3-0.6-0.4-0.9-0.4s-0.7,0.1-0.9,0.4c-0.3,0.3-0.4,0.6-0.4,0.9c0,0.4,0.1,0.7,0.4,0.9l0,0c-0.3,0.4-0.7,0.7-1,1.1
		c-0.2-0.2-0.5-0.4-0.9-0.4s-0.7,0.1-0.9,0.4c-0.3,0.3-0.4,0.6-0.4,0.9s0.1,0.7,0.4,0.9l0.1,0.1c-0.3,0.4-0.7,0.8-1,1.2l0.1,0.1
		c-0.3-0.3-0.6-0.4-0.9-0.4S9.7,20.7,9.5,21c-0.3,0.3-0.4,0.6-0.4,0.9s0.1,0.7,0.4,0.9c0.1,0.1,0.1,0.1,0.2,0.1
		c-0.3,0.4-0.6,0.9-0.9,1.3l0,0C8.6,24.1,8.4,24,8.1,24c-0.4,0-0.7,0.1-0.9,0.4c-0.3,0.3-0.4,0.6-0.4,0.9s0.1,0.7,0.4,0.9
		c0.1,0.1,0.3,0.2,0.4,0.3c-0.1,0-0.1-0.1-0.2-0.1c-0.3,0.4-0.5,0.9-0.8,1.4c-0.2-0.1-0.4-0.2-0.6-0.2c-0.4,0-0.7,0.1-0.9,0.4
		c-0.3,0.3-0.4,0.6-0.4,0.9c0,0.4,0.1,0.7,0.4,0.9c0.1,0.1,0.2,0.2,0.4,0.3c-0.2,0.5-0.4,0.9-0.6,1.4c-0.2-0.1-0.3-0.1-0.5-0.1
		c-0.4,0-0.7,0.1-0.9,0.4c-0.3,0.3-0.4,0.6-0.4,0.9c0,0.4,0.1,0.7,0.4,0.9c0.2,0.2,0.4,0.3,0.7,0.4c-0.1,0-0.1,0-0.2,0
		c-0.2,0.5-0.3,1-0.5,1.5l0,0c-0.1-0.1-0.3-0.1-0.4-0.1c-0.4,0-0.7,0.1-0.9,0.4c-0.3,0.3-0.4,0.6-0.4,0.9c0,0.4,0.1,0.7,0.4,0.9
		c0.2,0.2,0.4,0.3,0.6,0.3c-0.1,0.5-0.3,1-0.4,1.5c0.1,0,0.1,0,0.2,0.1c-0.2-0.1-0.3-0.1-0.5-0.1c-0.4,0-0.7,0.1-0.9,0.4
		c-0.3,0.3-0.4,0.6-0.4,0.9c0,0.4,0.1,0.7,0.4,0.9C1.5,41.9,1.8,42,2.1,42c-0.1,0-0.2,0-0.2,0c-0.1,0.5-0.2,1-0.2,1.5
		c0,0-0.1,0-0.2,0c-0.4,0-0.7,0.1-0.9,0.4c-0.3,0.3-0.4,0.6-0.4,0.9c0,0.4,0.1,0.7,0.4,0.9c0.2,0.2,0.5,0.3,0.8,0.4
		c-0.1,0.5-0.1,1-0.1,1.6l0,0c-0.4,0-0.7,0.1-0.9,0.4C0.1,48.4,0,48.7,0,49c0,0.4,0.1,0.7,0.4,0.9c0.2,0.2,0.5,0.4,0.9,0.4v1.5
		c-0.3,0-0.7,0.1-0.9,0.4C0.1,52.5,0,52.8,0,53.1c0,0.4,0.1,0.7,0.4,0.9c0.3,0.3,0.6,0.4,0.9,0.4h0.1c0,0.5,0.1,1,0.1,1.5h0.1
		c-0.4,0-0.7,0.1-0.9,0.4c-0.3,0.3-0.4,0.6-0.4,0.9c0,0.4,0.1,0.7,0.4,0.9c0.3,0.3,0.6,0.4,0.9,0.4c0.1,0,0.1,0,0.2,0
		C1.9,59,2,59.5,2,60c0.1,0,0.2,0,0.2,0c-0.4,0-0.7,0.1-0.9,0.4C1,60.7,0.9,61,0.9,61.3c0,0.4,0.1,0.7,0.4,0.9
		c0.3,0.3,0.6,0.4,0.9,0.4c0.2,0,0.3,0,0.5-0.1c-0.1,0-0.1,0-0.2,0.1c0.1,0.5,0.2,1,0.4,1.5c-0.2,0.1-0.4,0.2-0.6,0.3
		C2,64.7,1.9,65,1.9,65.3c0,0.4,0.1,0.7,0.4,0.9c0.3,0.3,0.6,0.4,0.9,0.4c0.2,0,0.3,0,0.5-0.1H3.6c0.2,0.5,0.3,1,0.5,1.5
		c-0.2,0.1-0.3,0.2-0.4,0.3c-0.3,0.3-0.4,0.6-0.4,0.9c0,0.4,0.1,0.7,0.4,0.9c0.3,0.3,0.6,0.4,0.9,0.4c0.2,0,0.3,0,0.5-0.1
		c0.2,0.5,0.4,0.9,0.6,1.4l0,0c-0.1,0.1-0.3,0.2-0.4,0.3C5,72.4,4.9,72.7,4.9,73c0,0.4,0.1,0.7,0.4,0.9c0.3,0.3,0.6,0.4,0.9,0.4
		s0.5-0.1,0.7-0.2c0,0-0.1,0-0.1,0.1c0.3,0.5,0.5,0.9,0.8,1.4c-0.1,0.1-0.2,0.1-0.3,0.2c-0.3,0.3-0.4,0.6-0.4,0.9
		c0,0.4,0.1,0.7,0.4,0.9C7.6,77.9,7.9,78,8.2,78c0.3,0,0.5-0.1,0.7-0.2c0.3,0.4,0.6,0.9,0.9,1.3c-0.1,0-0.1,0.1-0.2,0.1
		c-0.3,0.3-0.4,0.6-0.4,0.9c0,0.4,0.1,0.7,0.4,0.9c0.3,0.3,0.6,0.4,0.9,0.4c0.3,0,0.6-0.1,0.8-0.3c0.3,0.4,0.6,0.8,1,1.2
		c0,0-0.1,0-0.1,0.1c-0.3,0.3-0.4,0.6-0.4,0.9c0,0.4,0.1,0.7,0.4,0.9c0.3,0.3,0.6,0.4,0.9,0.4s0.6-0.1,0.9-0.3
		c0.3,0.4,0.7,0.7,1,1.1l0,0c-0.3,0.3-0.4,0.6-0.4,0.9c0,0.4,0.1,0.7,0.4,0.9c0.3,0.3,0.6,0.4,0.9,0.4s0.7-0.1,0.9-0.4l0,0
		c0.4,0.4,0.8,0.7,1.2,1.1c-0.2,0.2-0.3,0.5-0.3,0.9s0.1,0.7,0.4,0.9c0.3,0.3,0.6,0.4,0.9,0.4c0.4,0,0.7-0.1,0.9-0.4
		c0,0,0-0.1,0.1-0.1c0.4,0.3,0.8,0.6,1.2,0.9c-0.2,0.2-0.3,0.5-0.3,0.8c0,0.4,0.1,0.7,0.4,0.9c0.3,0.3,0.6,0.4,0.9,0.4
		c0.4,0,0.7-0.1,0.9-0.4c0,0,0.1-0.1,0.2-0.2c0.4,0.3,0.8,0.6,1.3,0.8l0,0c-0.2,1.3-0.3,1.5-0.3,1.8c0,0.4,0.1,0.7,0.4,0.9
		c0.3,0.3,0.6,0.4,0.9,0.4c0.4,0,0.7-0.1,0.9-0.4c0.1-0.1,0.2-0.3,0.3-0.4c0,0-0.1,0.1-0.1,0.2c0.4,0.2,0.9,0.5,1.3,0.7l0.1-0.1
		c-0.1,0.2-0.2,0.4-0.2,0.7c0,0.4,0.1,0.7,0.4,0.9c0.3,0.3,0.6,0.4,0.9,0.4c0.4,0,0.7-0.1,0.9-0.4c0.1-0.1,0.2-0.3,0.3-0.4l0,0
		c0.5,0.2,1,0.4,1.4,0.6c-0.1,0.2-0.1,0.3-0.1,0.5c0,0.4,0.1,0.7,0.4,0.9c0.3,0.3,0.6,0.4,0.9,0.4c0.4,0,0.7-0.1,0.9-0.4
		c0.1-0.1,0.2-0.3,0.3-0.5c0.5,0.2,1,0.3,1.5,0.5c0,0,0,0,0-0.1c0,0.1-0.1,0.3-0.1,0.4c0,0.4,0.1,0.7,0.4,0.9
		c0.3,0.3,0.6,0.4,0.9,0.4s0.7-0.1,0.9-0.4c0.2-0.2,0.3-0.4,0.3-0.6c0.5,0.1,1,0.2,1.5,0.4c0,0.1,0,0.2,0,0.2c0,0.4,0.1,0.7,0.4,0.9
		c0.3,0.3,0.6,0.4,0.9,0.4c0.4,0,0.7-0.1,0.9-0.4c0.2-0.2,0.3-0.4,0.4-0.7c0.5,0.1,1,0.2,1.6,0.2v0.1c0,0.4,0.1,0.7,0.4,0.9
		c0.3,0.3,0.6,0.4,0.9,0.4c0.4,0,0.7-0.1,0.9-0.4c0.3-0.3,0.4-0.6,0.4-0.9v0.1c0.5,0,1,0.1,1.5,0.1v0.1c0,0.4,0.1,0.7,0.4,0.9
		c0.3,0.3,0.6,0.4,0.9,0.4c0.4,0,0.7-0.1,0.9-0.4c0.3-0.2,0.4-0.6,0.4-0.9h0.8c0.4,0,0.8,0,1.2,0c0,0.3,0.1,0.6,0.4,0.9
		c0.3,0.3,0.6,0.4,0.9,0.4c0.4,0,0.7-0.1,0.9-0.4c0.3-0.3,0.4-0.6,0.4-0.9c0-0.1,0-0.2,0-0.2v0.1c0.5,0,1-0.1,1.5-0.1
		c0,0.3,0.2,0.5,0.4,0.8c0.3,0.3,0.6,0.4,0.9,0.4c0.4,0,0.7-0.1,0.9-0.4c0.3-0.3,0.4-0.6,0.4-0.9c0-0.1,0-0.1,0-0.2
		c0.5-0.1,1-0.2,1.5-0.2c0.1,0.2,0.2,0.5,0.4,0.7c0.3,0.3,0.6,0.4,0.9,0.4c0.4,0,0.7-0.1,0.9-0.4c0.3-0.3,0.4-0.6,0.4-0.9
		c0-0.1,0-0.2,0-0.3c0.5-0.1,1-0.2,1.5-0.4c0.1,0.2,0.2,0.4,0.3,0.6c0.3,0.3,0.6,0.4,0.9,0.4c0.4,0,0.7-0.1,0.9-0.4
		c0.3-0.3,0.4-0.6,0.4-0.9c0-0.1,0-0.3,0-0.4c0.5-0.2,1-0.3,1.5-0.5c0.1,0.2,0.2,0.3,0.3,0.5c0.3,0.3,0.6,0.4,0.9,0.4
		s0.7-0.1,0.9-0.4c0.3-0.3,0.4-0.6,0.4-0.9c0-0.2,0-0.3-0.1-0.5c0.5-0.2,0.9-0.4,1.4-0.7l0,0c0.1,0.1,0.2,0.3,0.3,0.4
		c0.3,0.3,0.6,0.4,0.9,0.4s0.7-0.1,0.9-0.4c0.3-0.3,0.4-0.6,0.4-0.9c0-0.2-0.1-0.4-0.2-0.6c0.5-0.2,0.9-0.5,1.3-0.8
		c0-0.1-0.1-0.1-0.1-0.2c0.1,0.2,0.2,0.3,0.3,0.4c0.3,0.3,0.6,0.4,0.9,0.4c0.4,0,0.7-0.1,0.9-0.4c0.3-0.3,0.4-0.6,0.4-0.9
		s-0.1-0.5-0.2-0.7c0.4-0.3,0.9-0.6,1.3-0.9c0,0.1,0.1,0.1,0.1,0.2c0.3,0.3,0.6,0.4,0.9,0.4c0.4,0,0.7-0.1,0.9-0.4
		c0.3-0.3,0.4-0.6,0.4-0.9c0-0.4-0.1-0.7-0.4-0.9l0.1,0.1c0.4-0.3,0.8-0.7,1.2-1c0,0,0-0.1-0.1-0.1c0,0.1,0.1,0.1,0.2,0.2
		c0.3,0.3,0.6,0.4,0.9,0.4c0.4,0,0.7-0.1,0.9-0.4c0.3-0.3,0.4-0.6,0.4-0.9s-0.1-0.7-0.4-0.9c0,0,0,0,0.1,0.1
		c0.4-0.4,0.8-0.7,1.2-1.1c0.3,0.3,0.6,0.4,0.9,0.4c0.4,0,0.7-0.1,0.9-0.4c0.3-0.3,0.4-0.6,0.4-0.9c0-0.4-0.1-0.7-0.4-0.9l0,0
		c0.3-0.4,0.7-0.7,1-1.1c0.2,0.2,0.5,0.3,0.9,0.3s0.7-0.1,0.9-0.4c0.3-0.3,0.4-0.6,0.4-0.9c0-0.4-0.1-0.7-0.4-0.9l-0.1-0.1
		c0.3-0.4,0.6-0.8,0.9-1.2c0.2,0.2,0.5,0.3,0.8,0.3c0.4,0,0.7-0.1,0.9-0.4c0.3-0.3,0.4-0.6,0.4-0.9c0-0.4-0.1-0.7-0.4-0.9
		c-0.1-0.1-0.1-0.1-0.2-0.2c0.3-0.4,0.6-0.8,0.8-1.3l0,0c0.2,0.1,0.4,0.2,0.7,0.2c0.4,0,0.7-0.1,0.9-0.4c0.3-0.3,0.4-0.6,0.4-0.9
		c0-0.4-0.1-0.7-0.4-0.9c-0.1-0.1-0.2-0.2-0.3-0.2c0.2-0.5,0.5-0.9,0.7-1.4c0,0,0,0-0.1,0c0.2,0.1,0.4,0.2,0.7,0.2
		c0.4,0,0.7-0.1,0.9-0.4c0.3-0.3,0.4-0.6,0.4-0.9c0-0.4-0.1-0.7-0.4-0.9c-0.1-0.1-0.2-0.2-0.4-0.3c0.2-0.5,0.4-0.9,0.6-1.4
		c0.2,0,0.3,0.1,0.5,0.1c0.4,0,0.7-0.1,0.9-0.4c0.3-0.3,0.4-0.6,0.4-0.9c0-0.4-0.1-0.7-0.4-0.9c-0.1-0.1-0.3-0.2-0.5-0.3
		c0.2-0.5,0.3-1,0.5-1.4c0.1,0,0.2,0,0.4,0c0.4,0,0.7-0.1,0.9-0.4c0.3-0.3,0.4-0.6,0.4-0.9s-0.1-0.7-0.4-0.9
		c-0.2-0.2-0.4-0.3-0.6-0.3l0,0c0.1-0.5,0.2-1,0.3-1.5c0.1,0,0.2,0,0.3,0c0.4,0,0.7-0.1,0.9-0.4c0.3-0.3,0.4-0.6,0.4-0.9
		c0-0.4-0.1-0.7-0.4-0.9c-0.3-0.3-0.6-0.4-0.9-0.4c0.1,0,0.2,0,0.2,0c0.1-0.5,0.2-1,0.2-1.6c0,0,0.1,0,0.2,0c0.4,0,0.7-0.1,0.9-0.4
		c0.3-0.3,0.4-0.6,0.4-0.9c0-0.4-0.1-0.7-0.4-0.9C102,55.9,101.7,55.8,101.3,55.8z M69.9,39c0.3-0.4,0.6-0.6,0.9-0.7
		c0.4,0,0.8,0.1,1.1,0.4c0.3,0.3,0.5,0.7,0.6,1.2s0,0.9-0.3,1.3c-0.3,0.4-0.6,0.6-1,0.7c-0.4,0-0.8-0.1-1.1-0.4
		c-0.3-0.3-0.5-0.7-0.6-1.2C69.6,39.9,69.7,39.4,69.9,39z M23.9,19.8c0.2,0,0.6,0,1.3-0.1c0.7,0,1.7-0.1,3.1-0.3l0.9-0.1l1.7-0.2
		c0.8-0.1,1.5-0.3,1.8-0.4c0.7-0.1,1.3-0.2,1.8-0.3c0.6-0.1,0.9,0.2,1,0.9c0,0.1,0,0.4,0.1,1c0.1,0.8,0.1,1.5,0.2,2.1
		c0.1,0.5,0.2,1.1,0.3,1.9c0.1,0.4,0.1,0.7,0.1,0.9c0.1,0.9-0.2,1.4-0.9,1.5s-1-0.4-1.2-1.4c0-0.1,0-0.3,0-0.6c0-0.3,0-0.6-0.1-0.8
		l-0.2-1.8c-0.1-0.6-0.2-1-0.5-1.2c-0.2-0.2-0.7-0.3-1.2-0.2c-0.8,0.1-1.3,0.4-1.4,0.8c-0.1,0.2,0,0.8,0.1,1.8l1.1,8.3
		c0.3,2.3,0.5,3.7,0.7,4.3s0.5,0.8,0.8,0.8c0.1,0,0.2,0,0.5-0.1c0.1-0.1,0.3-0.1,0.5-0.1c0.6-0.1,1,0.2,1.1,0.9c0,0.3,0,0.6-0.2,0.9
		c-0.2,0.3-0.4,0.4-0.8,0.4c-0.2,0-0.7,0-1.4,0c-0.5,0-1,0-1.4,0c-0.3,0-0.8,0.2-1.4,0.3c-0.6,0.2-1,0.3-1.3,0.3s-0.6,0-0.8-0.2
		c-0.3-0.2-0.4-0.5-0.4-0.8c-0.1-0.7,0.2-1,0.9-1.1c0.2,0,0.3,0,0.5,0c0.3,0,0.5,0,0.5,0c0.4,0,0.6-0.4,0.6-1s-0.1-2-0.4-4.3l-0.9-7
		c-0.2-1.7-0.4-2.7-0.6-3.1s-0.7-0.5-1.3-0.5c-0.7,0.1-1.2,0.2-1.4,0.5c-0.4,0.4-0.4,0.8-0.4,1.4c0,0.2,0.1,0.7,0.3,1.5
		c0.1,0.8,0.2,1.4,0.3,1.7c0.1,1-0.2,1.6-0.8,1.7c-0.7,0.1-1-0.3-1.2-1.2c0,0,0-0.3-0.1-0.9c-0.1-0.9-0.2-1.7-0.2-2.2
		c0-0.3-0.1-0.9-0.3-1.7c-0.1-0.4-0.1-0.8-0.2-1.1C23,20.3,23.3,19.9,23.9,19.8z M40.7,75.2c-0.7,0.1-1-0.4-1.2-1.4
		c0-0.1,0-0.3,0-0.6c0-0.3,0-0.6-0.1-0.8l-0.2-1.8c-0.1-0.6-0.2-1-0.5-1.2s-0.7-0.3-1.2-0.2c-0.8,0.1-1.3,0.4-1.4,0.8
		c-0.1,0.2,0,0.8,0.1,1.8l1.1,8.3c0.3,2.3,0.5,3.7,0.7,4.3c0.2,0.6,0.5,0.8,0.8,0.8c0.1,0,0.2,0,0.5-0.1c0.1,0,0.3-0.1,0.5-0.1
		c0.6-0.1,1,0.2,1.1,0.9c0,0.3,0,0.6-0.2,0.9s-0.4,0.4-0.8,0.4c-0.2,0-0.7,0-1.4,0c-0.5,0-1,0-1.4,0c-0.3,0-0.8,0.2-1.3,0.3
		c-0.6,0.2-1,0.3-1.3,0.3s-0.6,0-0.8-0.2s-0.4-0.5-0.4-0.8c-0.1-0.7,0.2-1,0.9-1.1c0.2,0,0.3,0,0.5,0c0.3,0,0.5,0,0.5,0
		c0.4,0,0.6-0.4,0.6-1s-0.1-2-0.4-4.3l-0.9-7c-0.2-1.7-0.4-2.7-0.6-3.1c-0.2-0.4-0.7-0.6-1.3-0.5c-0.7,0.1-1.2,0.2-1.4,0.5
		C31,70.5,30.9,71,31,71.5c0,0.2,0.1,0.7,0.3,1.5c0.1,0.8,0.2,1.4,0.3,1.7c0.1,1-0.2,1.6-0.8,1.7c-0.7,0.1-1-0.3-1.2-1.2
		c0,0,0-0.3-0.1-0.9c-0.1-0.9-0.2-1.7-0.2-2.2c0-0.3-0.1-0.9-0.3-1.7c-0.1-0.4-0.1-0.8-0.2-1.1c-0.1-0.7,0.2-1.1,0.8-1.2
		c0.2,0,0.6,0,1.3-0.1c0.7,0,1.7-0.1,3.2-0.3l0.9-0.1l1.7-0.2c0.8-0.1,1.5-0.2,1.8-0.3c0.7-0.1,1.3-0.2,1.8-0.3
		c0.6-0.1,0.9,0.2,1,0.9c0,0.1,0,0.4,0.1,1c0.1,0.8,0.1,1.5,0.2,2.1c0.1,0.5,0.2,1.1,0.3,1.9c0.1,0.4,0.1,0.7,0.2,0.9
		C41.7,74.6,41.4,75.1,40.7,75.2z M41.9,61.6c-0.2,0.3-0.5,0.4-0.8,0.4s-0.8,0-1.4,0c-0.6,0-1.1,0-1.4,0c-0.3,0-0.7,0.1-1.2,0.3
		s-0.9,0.3-1.2,0.3s-0.5-0.1-0.7-0.3s-0.3-0.5-0.4-0.8c-0.1-0.7,0.2-1.1,0.9-1.2h0.4c0,0.1,0.1,0.1,0.3,0.1c0.5-0.1,0.7-0.5,0.7-1.4
		L37,57.7l-0.3-2.5l-1.4-11.1l-1.6,18.2c0,0.6-0.4,0.9-1.1,1c-0.7,0.1-1.2-0.1-1.3-0.6l-6.1-17l1.3,10.6c0.3,2.3,0.5,3.8,0.7,4.4
		c0.2,0.6,0.5,0.9,0.8,0.8c0.1,0,0.2,0,0.4-0.1c0.2,0,0.3-0.1,0.4-0.1c0.7-0.1,1,0.2,1.1,0.9c0.1,0.8-0.2,1.2-0.9,1.3
		c-0.2,0-0.6,0-1.1,0s-1,0-1.5,0c-0.3,0-0.8,0.2-1.4,0.3c-0.6,0.2-1.1,0.3-1.4,0.3c-0.7,0.1-1.2-0.2-1.3-1c-0.1-0.7,0.2-1,0.8-1.1
		c0.2,0,0.3,0,0.5,0h0.7c0.4,0,0.6-0.4,0.6-1s-0.1-2-0.4-4.3l-0.7-5.5c-0.3-2.3-0.5-3.7-0.7-4.3s-0.4-0.8-0.8-0.8c0,0-0.2,0-0.5,0.1
		c-0.1,0-0.2,0.1-0.4,0.1c-0.6,0.1-1-0.2-1.1-0.8c0-0.3,0-0.6,0.2-0.9c0.2-0.3,0.4-0.4,0.8-0.4c0.1,0,0.5,0,1,0c0.2,0,0.5,0,1-0.1
		c0.3,0,0.7-0.1,1.2-0.2c0.5-0.1,0.9-0.2,1.1-0.2c0.3,0,0.6,0.1,0.8,0.5c0.1,0.1,0.2,0.5,0.4,1L32,59.7L33.4,44
		c0.1-0.9,0.3-1.4,0.8-1.4c0,0,0.4,0,1.1,0c0.2,0,0.5,0,0.7,0c0.3,0,0.7-0.2,1.3-0.3c0.5-0.2,1-0.3,1.3-0.3s0.6,0,0.9,0.2
		c0.3,0.2,0.4,0.5,0.4,0.8s0,0.5-0.2,0.8c-0.2,0.2-0.4,0.4-0.7,0.4c-0.1,0-0.3,0-0.5,0c-0.3-0.1-0.5-0.1-0.6-0.1
		c-0.5,0.1-0.7,0.8-0.6,2.4c0,0,0.1,1,0.4,2.9l0.7,5.6l0.4,2.9c0.3,1.5,0.7,2.2,1.1,2.1c0,0,0.2,0,0.5-0.1c0.1,0,0.2-0.1,0.4-0.1
		c0.3,0,0.5,0,0.7,0.2s0.3,0.4,0.4,0.7C42.2,61,42.1,61.3,41.9,61.6z M41.8,37.7c-0.5,0.2-0.9,0.2-1.1,0.3c-0.6,0.1-1-0.2-1.1-0.9
		s0.1-1,0.7-1.1c0.1,0,0.2,0,0.3,0h0.3c0.3,0,0.5-0.2,0.5-0.5s0-1.1-0.2-2.4L41,31.8l-0.9-7.2c0-0.1,0-0.4-0.1-0.8
		c-0.1-0.5-0.1-1-0.2-1.3L39.6,21c-0.1-0.7-0.4-1-0.8-0.9h-0.2c-0.1,0-0.2,0-0.3,0c-0.6,0.1-1-0.2-1-0.8c0-0.3,0-0.5,0.2-0.8
		c0.2-0.2,0.4-0.4,0.6-0.4c0.2,0,0.4,0,0.7,0s0.5,0,0.7,0c0.3,0,0.5-0.1,0.8-0.2c0.2-0.1,0.4-0.2,0.6-0.2c0.3,0,0.5,0.2,0.6,0.7v0.1
		l0.7,5.8c0.9-1.3,2-2,3.3-2.1c1.6-0.2,2.8,0.3,3.7,1.4c0.6,0.7,1,1.9,1.2,3.6l0.6,4.7c0.2,1.3,0.3,2.1,0.4,2.3
		c0.1,0.3,0.3,0.4,0.6,0.3h0.3c0.1,0,0.2,0,0.3,0c0.5-0.1,0.8,0.2,0.9,0.9c0.1,0.7-0.2,1-0.8,1.1c-0.2,0-0.6,0-1,0c-0.5,0-1,0-1.6,0
		c-0.1,0-0.4,0.1-0.9,0.2c-0.5,0.2-0.8,0.3-0.8,0.3c-0.6,0.1-1-0.2-1-0.9c-0.1-0.7,0.1-1,0.7-1.1c0.1,0,0.2,0,0.3,0h0.3
		c0.3,0,0.5-0.2,0.5-0.5s0-1.1-0.2-2.4l-0.5-4.3c-0.3-2.6-1.4-3.8-3.1-3.6c-1.3,0.2-2.1,0.8-2.4,2c-0.3,1-0.3,2.2-0.2,3.3v0.4
		l0.3,1.6l0.2,1.3c0.2,1.3,0.3,2.1,0.4,2.3c0.1,0.3,0.3,0.4,0.6,0.3h0.3c0.1,0,0.2,0,0.3,0c0.5-0.1,0.8,0.2,0.9,0.9
		c0.1,0.7-0.2,1-0.8,1.1c-0.2,0-0.5,0-1.1,0c-0.4,0-0.7,0-1,0.1C42.6,37.5,42.3,37.6,41.8,37.7z M44.2,48.5c0.8-1.6,2-2.4,3.6-2.7
		c1.4-0.2,2.6,0.3,3.7,1.4c1,1.1,1.7,2.6,1.9,4.5c0.1,0.7,0.1,1.2,0,1.4s-0.3,0.3-0.8,0.4l-5.9,0.7c-0.5,0.1-0.8,0.1-0.9,0.2
		c-0.1,0.1-0.1,0.3-0.1,0.7c0.2,1.3,0.6,2.3,1.2,3.1c0.7,0.7,1.4,1.1,2.3,0.9c0.6-0.1,1.1-0.3,1.5-0.8c0.4-0.4,0.7-1,0.7-1.6l0.1-1
		c0.1-0.6,0.4-0.9,0.9-1c0.6-0.1,1,0.2,1.1,1c0.2,1.3-0.2,2.5-1,3.6s-1.9,1.7-3.2,1.9c-1.6,0.2-2.9-0.3-4-1.6
		c-1.1-1.2-1.8-3-2.1-5.3C43.2,52,43.4,50.1,44.2,48.5z M53.9,76.3c-0.3,0.6-0.7,0.9-1.2,1c-0.4,0.1-0.8,0-1.1-0.3
		c-0.3-0.2-0.5-0.6-0.5-1c-0.1-0.8,0.3-1.3,1.1-1.5c0-0.1,0-0.3,0-0.5c-0.1-0.5-0.3-0.9-0.7-1.2c-0.4-0.3-0.8-0.4-1.2-0.4
		c-1.7,0.2-2.3,2-1.9,5.3l0.3,2.4c0.2,1.7,0.4,2.7,0.5,3.1s0.3,0.6,0.7,0.5c0.1,0,0.3,0,0.5-0.1c0.1,0,0.3,0,0.6-0.1
		c0.6-0.1,0.9,0.2,1,0.8c0.1,0.7-0.2,1.1-0.8,1.2c-0.2,0-0.7,0-1.3,0c-0.4,0-0.9,0-1.3,0.1c-0.3,0-0.7,0.1-1.2,0.3
		c-0.5,0.1-0.9,0.2-1.1,0.2c-0.6,0.1-1-0.2-1.1-0.9c-0.1-0.7,0.2-1,0.7-1.1c0.1,0,0.2,0,0.3,0h0.3c0.3,0,0.5-0.2,0.5-0.5
		s0-1.1-0.2-2.3l-0.7-5.2c-0.2-1.2-0.3-2-0.4-2.3c-0.1-0.3-0.3-0.5-0.7-0.4h-0.1c0,0,0,0-0.1,0s-0.2,0-0.3,0s-0.2,0-0.2,0
		c-0.5,0.1-0.8-0.2-0.9-0.8c0-0.3,0-0.6,0.2-0.8c0.2-0.2,0.3-0.4,0.6-0.4c0.2,0,0.4,0,0.7,0s0.6,0,0.8,0s0.5-0.1,0.9-0.3
		c0.1,0,0.2,0,0.2-0.1c0.2,0,0.3,0.2,0.4,0.8v0.4c0.7-1.1,1.6-1.7,2.6-1.8c1-0.1,1.9,0.1,2.7,0.8c0.7,0.7,1.2,1.6,1.3,2.7
		C54.2,75,54.1,75.7,53.9,76.3z M54.3,28.8c-0.3-2.3,0-4.2,0.8-5.8c0.8-1.6,2-2.5,3.6-2.7c1.4-0.2,2.6,0.3,3.7,1.4
		c1,1.1,1.7,2.6,1.9,4.4c0.1,0.7,0.1,1.2,0,1.4c-0.1,0.2-0.3,0.3-0.8,0.4l-5.9,0.7c-0.5,0.1-0.8,0.1-0.9,0.2
		c-0.1,0.1-0.1,0.3-0.1,0.7c0.2,1.3,0.6,2.3,1.2,3.1c0.7,0.7,1.4,1,2.3,0.9c0.6-0.1,1.1-0.3,1.5-0.8c0.4-0.4,0.7-1,0.7-1.6l0.1-1
		c0.1-0.6,0.4-0.9,0.9-1c0.6-0.1,1,0.2,1.1,0.9c0.2,1.3-0.2,2.5-1,3.6s-1.9,1.7-3.2,1.9c-1.6,0.2-2.9-0.3-4-1.5
		C55.3,32.9,54.6,31.1,54.3,28.8z M65.8,82.6c-0.8,1.1-1.9,1.7-3.2,1.9c-1.6,0.2-2.9-0.3-4-1.6c-1.1-1.2-1.8-3-2.1-5.3
		s0-4.2,0.8-5.8c0.8-1.6,2-2.5,3.6-2.7c1.4-0.2,2.6,0.3,3.7,1.4c1,1.1,1.7,2.6,1.9,4.5c0.1,0.7,0.1,1.2,0,1.4
		c-0.1,0.2-0.3,0.3-0.8,0.4l-5.9,0.7c-0.5,0.1-0.8,0.1-0.9,0.2c-0.1,0.1-0.1,0.3-0.1,0.7c0.2,1.3,0.6,2.3,1.2,3.1
		c0.7,0.7,1.4,1,2.3,0.9c0.6-0.1,1.1-0.3,1.5-0.8c0.4-0.4,0.7-1,0.7-1.6l0.1-1c0.1-0.6,0.4-0.9,0.9-1c0.6-0.1,1,0.2,1.1,0.9
		C67,80.4,66.6,81.5,65.8,82.6z M68.1,58.6c-0.1,0-0.3,0-0.6,0c-0.6,0-0.9,0-0.9,0c-0.2,0-0.4,0.1-0.6,0.2c-0.3,0.1-0.5,0.2-0.6,0.2
		c-0.3,0-0.5-0.2-0.6-0.6c0-0.2,0-0.4-0.1-0.6c-0.8,1.2-1.8,1.8-2.9,2c-1.4,0.2-2.7-0.4-3.8-1.6c-1.1-1.3-1.8-3-2.1-5.2
		c-0.3-2.3,0-4.3,0.7-5.8c0.8-1.6,1.9-2.5,3.5-2.7c1.1-0.1,2.1,0.2,3,1l-0.2-1.7c0-0.3-0.1-0.6-0.2-0.9c-0.1-0.3-0.1-0.5-0.1-0.6
		c-0.1-0.7-0.4-1-0.8-0.9h-0.2c-0.1,0-0.2,0-0.3,0c-0.6,0.1-0.9-0.2-1-0.8c0-0.3,0-0.5,0.2-0.8s0.4-0.4,0.6-0.4s0.4,0,0.7,0
		s0.5,0,0.7,0s0.4-0.1,0.8-0.2c0.2-0.1,0.5-0.2,0.6-0.2c0.3,0,0.5,0.2,0.5,0.6v0.1c0,0.4,0.1,0.8,0.2,1.5c0.1,0.8,0.2,1.4,0.2,1.8
		l0.2,2.1l0.3,2.2l0.9,6.8c0.1,1,0.2,1.6,0.2,1.7c0.2,0.8,0.5,1.1,0.9,1.1h0.1c0.2,0,0.3,0,0.5-0.1c0.5-0.1,0.8,0.2,0.9,0.8
		C69,58.1,68.7,58.5,68.1,58.6z M68.6,44.5c0-0.3,0-0.5,0.2-0.8c0.2-0.2,0.4-0.4,0.6-0.4c0.1,0,0.3,0,0.7,0.1c0.3,0,0.5,0,0.6,0
		c0.2,0,0.4-0.1,0.8-0.2c0.3-0.1,0.6-0.2,0.7-0.2c0.3,0,0.5,0.2,0.6,0.7v0.4c0,0,0,0.2,0.1,0.4c0,0.3,0,0.5,0,0.8l0.4,3.1l0.2,1.9
		l0.2,1.6l0.2,1.3c0.2,1.3,0.3,2.1,0.4,2.3c0.1,0.3,0.3,0.4,0.6,0.3h0.3c0.1,0,0.2,0,0.3,0c0.5-0.1,0.8,0.2,0.9,0.9
		s-0.2,1.1-0.8,1.1c-0.3,0-0.7,0-1.2,0s-0.9,0-1.2,0c-0.3,0-0.6,0.1-1,0.3c-0.4,0.1-0.8,0.2-1,0.2c-0.6,0.1-1-0.2-1.1-0.9
		s0.2-1,0.7-1.1c0.1,0,0.2,0,0.3,0h0.3c0.3,0,0.5-0.2,0.5-0.5s0-1.1-0.2-2.4L71.3,50c0-0.1-0.1-0.4-0.1-0.9
		c-0.1-0.5-0.1-0.9-0.2-1.3c-0.2-1-0.2-1.5-0.2-1.5c-0.1-0.7-0.4-1-0.8-0.9h-0.2c0,0-0.1,0-0.2,0s-0.1,0-0.2,0
		C69,45.4,68.7,45.2,68.6,44.5z M78.3,81.1c-0.8,1.1-1.9,1.7-3.2,1.9c-1.6,0.2-2.9-0.3-4-1.6c-1.1-1.2-1.8-3-2.1-5.3
		c-0.3-2.3,0-4.2,0.8-5.8c0.8-1.6,2-2.5,3.6-2.7c1.4-0.2,2.6,0.3,3.7,1.4c1,1.1,1.7,2.6,1.9,4.4c0.1,0.7,0.1,1.2,0,1.4
		c-0.1,0.2-0.3,0.3-0.8,0.3l-5.9,0.7c-0.5,0.1-0.8,0.2-0.9,0.3c-0.1,0.1-0.1,0.3-0.1,0.7c0.2,1.3,0.6,2.3,1.2,3.1
		c0.7,0.7,1.4,1.1,2.3,0.9c0.6-0.1,1.1-0.3,1.5-0.8c0.4-0.4,0.7-1,0.7-1.6l0.1-1c0.1-0.6,0.4-0.9,0.9-1c0.6-0.1,1,0.2,1.1,0.9
		C79.5,78.8,79.2,80,78.3,81.1z M89.6,55.1c-0.3,0.7-0.9,1.1-1.9,1.2c-1.1,0.1-1.9-0.4-2.4-1.5c-0.7,1.3-1.8,2-3.2,2.2
		c-1.2,0.1-2.2-0.1-3-0.9c-0.8-0.7-1.3-1.7-1.5-3c-0.2-1.6,0.2-2.8,1.1-3.6c0.7-0.6,1.7-1,3.2-1.4c0.8-0.2,1.4-0.5,1.7-0.9
		c0.3-0.4,0.4-0.9,0.3-1.7c-0.2-1.6-1-2.3-2.3-2.1c-0.3,0-0.7,0.2-1.2,0.4c-0.5,0.3-0.7,0.6-0.7,1c0,0.1,0.1,0.2,0.2,0.4
		c0.3,0.3,0.5,0.7,0.5,1c0.1,0.8-0.3,1.3-1.2,1.4c-1,0.1-1.6-0.4-1.8-1.7c-0.1-1.1,0.2-2,0.9-2.9c0.7-0.8,1.7-1.3,3-1.5
		c0.8-0.1,1.6,0,2.3,0.2c0.8,0.3,1.4,0.8,1.8,1.5c0.3,0.6,0.5,1.5,0.7,3l0.9,7.3c0.1,0.6,0.3,0.8,0.6,0.8c0.5-0.1,0.6-0.8,0.4-2.2
		c0-0.3-0.1-0.5-0.1-0.6v-0.3c-0.1-0.8,0.1-1.3,0.7-1.4c0.6-0.1,1,0.4,1.2,1.6C90,53.2,89.9,54.4,89.6,55.1z M72,74l3.7-0.5
		c0.5-0.1,0.8-0.1,0.9-0.2s0.1-0.3,0.1-0.6c-0.1-0.9-0.5-1.7-1.1-2.3c-0.6-0.6-1.3-0.8-2-0.7c-1.2,0.1-1.9,0.9-2.3,2.3
		c-0.1,0.5-0.2,1-0.2,1.3c0,0.1,0,0.2,0,0.3C71.2,73.9,71.4,74,72,74z M59.4,75.6l3.7-0.5c0.5-0.1,0.8-0.1,0.9-0.2s0.2-0.3,0.1-0.6
		c-0.1-1-0.5-1.7-1.1-2.3c-0.6-0.6-1.3-0.8-2-0.7c-1.2,0.2-1.9,0.9-2.3,2.3c-0.1,0.5-0.2,1-0.2,1.3c0,0.1,0,0.2,0,0.3
		C58.6,75.5,58.9,75.6,59.4,75.6z M84.4,49.2c-0.5,0.3-1,0.5-1.6,0.7l-1.3,0.4c-1.4,0.4-2,1.3-1.9,2.7c0.1,0.7,0.4,1.3,0.8,1.7
		c0.5,0.4,1,0.5,1.7,0.5c0.7-0.1,1.3-0.4,1.7-1c0.4-0.6,0.7-1.3,0.7-2.2C84.6,51.4,84.6,50.5,84.4,49.2z M64,51.7
		c-0.2-1.8-0.6-3.1-1.1-3.9c-0.6-1-1.4-1.5-2.5-1.3c-0.9,0.1-1.5,0.7-1.9,1.7s-0.5,2.4-0.3,3.9v0.2c0.2,1.7,0.6,3.1,1.3,4
		c0.6,0.9,1.4,1.3,2.3,1.2s1.6-0.7,2-1.7C64.1,54.7,64.2,53.4,64,51.7z M51,50.9c-0.1-1-0.5-1.7-1.1-2.3s-1.3-0.8-2-0.7
		c-1.2,0.2-1.9,0.9-2.3,2.3c-0.1,0.5-0.2,1-0.2,1.3c0,0.1,0,0.2,0,0.3c0,0.3,0.3,0.5,0.8,0.4l3.7-0.5c0.5-0.1,0.8-0.1,0.9-0.2
		C51,51.4,51.1,51.2,51,50.9z M60.8,23.1c-0.6-0.6-1.3-0.8-2-0.7c-1.2,0.2-1.9,0.9-2.3,2.3c-0.1,0.5-0.2,1-0.2,1.3
		c0,0.1,0,0.2,0,0.3c0,0.4,0.3,0.5,0.8,0.4l3.7-0.5c0.5-0.1,0.8-0.1,0.9-0.2s0.1-0.3,0.1-0.6C61.8,24.5,61.4,23.7,60.8,23.1z"/>
</g>
</svg>
