<svg xmlns="http://www.w3.org/2000/svg" viewBox="0 0 434.51 72.87">
  <defs>
    <style>
      .cls-1 {
        fill: #ffffff;
      }
    </style>
  </defs>
  <g id="Layer_2" data-name="Layer 2">
    <g id="Layer_1-2" data-name="Layer 1">
      <g>
        <path class="cls-1" d="M96.51,4.45V3.81c-2.59.24-4.37.32-6.32.32a53.27,53.27,0,0,1-5.58-.32v.64c3.48.49,5.18,2,5.18,4.46a7.47,7.47,0,0,1-.57,2.75L70.6,58.78c0-.24-8-18.38-13.6-31.82q3.53-5.46,5.83-10c1.54-3,2.35-5.1,2.43-6.15s.08-1.78.08-1.86c0-3.81-2.92-5.35-7.94-5.35-1,0-2,.08-3.15.17l-5.91.24c-1.7.08-3.41.16-4.94.16-3.16,0-6.24-.16-10.45-.4l-.08.64c2.19.73,4.21,2.51,6.72,8.26l10.2,23.8A177.6,177.6,0,0,0,37.41,58.05C36.11,55.22,31.49,44.13,27,33.76c-2.59-6.07-5.42-12.79-8.58-20a11.64,11.64,0,0,1-1.05-4.53,15.09,15.09,0,0,1,.24-1.94c.16-.89,1.46-1.87,3.8-2.76V3.89l-5.91.24c-1.7.08-3.4.16-4.93.16-3.16,0-6.24-.16-10.45-.4L0,4.53A8.9,8.9,0,0,1,3.24,6.8a22.35,22.35,0,0,1,3.4,6l25.83,60h.64c2.35-11.58,10-24.05,17.09-35.3L65.34,72.71h.73Q72.75,55.82,78,42.42C84,27.28,90,11.66,90.44,10.85,92.14,7,92.87,5.75,96.51,4.45ZM51.25,13.68a12.93,12.93,0,0,1-1.13-4.53,6.42,6.42,0,0,1,.16-1.3c.32-1.62,1.54-2.75,4-3.15,4.77-.41,10.2-.41,10.2,4.29-.08,3.8-3.32,9.63-7.94,17C53.92,19.84,51.9,15.06,51.25,13.68Z"/>
        <path class="cls-1" d="M119.43,17.81c-18.62,0-27.37,13.93-27.37,27v.49c0,13.84,9.39,27.53,27.12,27.53a28.16,28.16,0,0,0,19.27-7.05,16.91,16.91,0,0,0,4.05-5.26,13.61,13.61,0,0,0,1.62-6.88,14.17,14.17,0,0,0-4.45-10.36c-3.32-3.08-8.42-5.27-15.55-5.35,9.56-1.7,18-3.24,20.65-3.64C140.88,24.61,132,17.81,119.43,17.81Zm22.42,30a12.77,12.77,0,0,1,1.38,5.91,29.71,29.71,0,0,1-.65,4.78c-.48,2.1-2,4.37-4.69,6.72A27.26,27.26,0,0,1,119.43,72c-6.8-.08-11.09-4.38-13.69-10.29s-3-12.06-3-16.59c0-1.14,0-2.19.08-3.32,4.94-.89,13-2.84,20.73-2.84S138.37,40.89,141.85,47.77Zm-26.39-9.15c-4.53.89-8.83,1.62-12.63,2.27.65-10,4.53-22.19,16.52-22.19,9.79,0,14.16,8,15.86,16.44C129.63,36.11,122.5,37.41,115.46,38.62Z"/>
        <path class="cls-1" d="M187.12,17.81c-9.72,0-18.63,7.21-20.57,19.68V0a58.51,58.51,0,0,1-15.62,3.72v.81c4.29.41,4.93,2.59,5.18,7V62.1c-.25,5.5-.89,9.88-5.51,9.88v.81h16V54.49c1.94,10.2,10.61,18.3,20.24,18.3h.41c13.68,0,23.72-10,23.72-27.13C210.92,28.82,202.66,17.81,187.12,17.81Zm.08,54.09h-.49c-7.77,0-15.06-5.59-18.13-13.53a29.07,29.07,0,0,1-2-11.82V45.34c0-2.83.33-8,1.62-11.42C171.09,24,179,18.7,187.12,18.7c11.74,0,13.44,15.22,13.44,27C200.56,60.4,197.16,71.9,187.2,71.9Z"/>
        <path class="cls-1" d="M258.53,44.69c-7.21-5.42-23.4-5.83-28.82-9.71-1.54-1.14-2.43-2.27-2.59-3.4a18.57,18.57,0,0,1-.25-2.27,9.05,9.05,0,0,1,1.3-4.54c1.86-3.15,6.48-6.23,13.68-6.23,7.94,0,13.2,6.07,14.25,14.49h.65l3-11.74c-5.58-1.94-10.6-3.48-18.54-3.48-7.53,0-13.11,2-16.76,4.78a14.44,14.44,0,0,0-4.12,4.86c-1.95,3.64-1.54,5.66-1.54,5.91a11.77,11.77,0,0,0,4.69,9.47c8,6.23,23.56,5.83,28.58,10.2a6.08,6.08,0,0,1,2.27,3.64c.08,1.3.16,2.11.16,2.51a12.48,12.48,0,0,1-1.37,5.35c-2,3.8-6.72,7.45-14.82,7.45-9.8,0-16.76-6.48-17.81-16.12h-.41l-3.32,11.91a42.92,42.92,0,0,0,10,3.8,43.83,43.83,0,0,0,10.61,1.22c9.07,0,15.62-2.27,19.92-5.59A16.05,16.05,0,0,0,262,61.61c2-4.13,1.62-6.31,1.62-6.55A13.19,13.19,0,0,0,258.53,44.69Z"/>
        <path class="cls-1" d="M317.56,4.21a82.85,82.85,0,0,1-10.77,8.58c-8.91,5.83-23.73,13-33.68,13a11.06,11.06,0,0,1-8.59-4.05,7.53,7.53,0,0,1-1.86-5.1,8.43,8.43,0,0,1,1-4c2.51-4.86,7.86-6.64,13-6.64h.4a24.73,24.73,0,0,1,3.49.24,6.23,6.23,0,0,0-3.81,6.08c0,3.88,2.43,6.23,5.91,6.23a6,6,0,0,0,5.91-6.23c0-6.24-6.88-7.13-11.74-7.13-5.83,0-11.41,1.94-13.92,7.05a9.59,9.59,0,0,0-1.14,4.53,8.18,8.18,0,0,0,.49,2.83A10.08,10.08,0,0,0,267.12,25a12.66,12.66,0,0,0,5.58,1.62,9.36,9.36,0,0,1,2.35.48c2.91,1.22,2.83,4.62,2.83,10.2V63.48c0,5.74-1.13,8.42-6.47,8.42v.81c3.48-.25,7.12-.33,10.6-.33,4.94,0,9.48.08,12.71.33V71.9c-5.1,0-6.31-2.51-6.39-7.94V23.16A78.14,78.14,0,0,0,302,16.76c4,.4,4.78,2.51,5,6.4V59.91c.24,10,5,12.8,16,12.8V71.9c-4.61,0-5.26-4.13-5.5-9.56V18.62h5.58v-.81h-5.58Z"/>
        <path class="cls-1" d="M356.42,17.81c-18.62,0-27.36,13.93-27.36,27v.49c0,13.84,9.39,27.53,27.12,27.53a28.17,28.17,0,0,0,19.27-7.05,16.91,16.91,0,0,0,4.05-5.26,13.61,13.61,0,0,0,1.62-6.88,14.18,14.18,0,0,0-4.46-10.36c-3.32-3.08-8.42-5.27-15.54-5.35,9.55-1.7,18-3.24,20.64-3.64C377.88,24.61,369,17.81,356.42,17.81Zm22.43,30a12.9,12.9,0,0,1,1.38,5.91,30.92,30.92,0,0,1-.65,4.78c-.49,2.1-2,4.37-4.7,6.72A27.23,27.23,0,0,1,356.42,72c-6.8-.08-11.09-4.38-13.68-10.29s-3-12.06-3-16.59c0-1.14,0-2.19.09-3.32,4.93-.89,13-2.84,20.72-2.84S375.37,40.89,378.85,47.77Zm-26.39-9.15c-4.54.89-8.83,1.62-12.63,2.27.64-10,4.53-22.19,16.51-22.19,9.8,0,14.17,8,15.87,16.44C366.62,36.11,359.5,37.41,352.46,38.62Z"/>
        <path class="cls-1" d="M434.48,55.06a13.2,13.2,0,0,0-5.11-10.37c-7.2-5.42-23.39-5.83-28.82-9.71-1.54-1.14-2.43-2.27-2.59-3.4a20.07,20.07,0,0,1-.24-2.27A9,9,0,0,1,399,24.77c1.87-3.15,6.48-6.23,13.69-6.23,7.93,0,13.19,6.07,14.25,14.49h.64l3-11.74C425,19.35,420,17.81,412.05,17.81c-7.53,0-13.12,2-16.76,4.78a14.48,14.48,0,0,0-4.13,4.86c-1.94,3.64-1.54,5.66-1.54,5.91a11.79,11.79,0,0,0,4.7,9.47c8,6.23,23.56,5.83,28.58,10.2a6.1,6.1,0,0,1,2.26,3.64c.09,1.3.17,2.11.17,2.51A12.5,12.5,0,0,1,424,64.53C422,68.33,417.23,72,409.13,72c-9.79,0-16.76-6.48-17.81-16.12h-.4L387.6,67.77a42.92,42.92,0,0,0,10,3.8,43.8,43.8,0,0,0,10.6,1.22c9.07,0,15.63-2.27,19.92-5.59a16.08,16.08,0,0,0,4.7-5.59C434.88,57.48,434.48,55.3,434.48,55.06Z"/>
      </g>
    </g>
  </g>
</svg>
