<svg xmlns="http://www.w3.org/2000/svg" viewBox="0 0 438.93 72.87">
  <defs>
    <style>
      .cls-1 {
        fill: #ffffff;
      }
    </style>
  </defs>
  <g id="Layer_2" data-name="Layer 2">
    <g id="Layer_1-2" data-name="Layer 1">
      <g>
        <path class="cls-1" d="M96.51,4.45V3.81c-2.59.24-4.37.32-6.32.32a53.27,53.27,0,0,1-5.58-.32v.64c3.48.49,5.18,2,5.18,4.46a7.47,7.47,0,0,1-.57,2.75L70.6,58.78c0-.24-8-18.38-13.6-31.82q3.53-5.46,5.83-10c1.54-3,2.35-5.1,2.43-6.15s.08-1.78.08-1.86c0-3.81-2.92-5.35-7.94-5.35-1,0-2,.08-3.15.17l-5.91.24c-1.7.08-3.41.16-4.94.16-3.16,0-6.24-.16-10.45-.4l-.08.64c2.19.73,4.21,2.51,6.72,8.26l10.2,23.8A177.6,177.6,0,0,0,37.41,58.05C36.11,55.22,31.49,44.13,27,33.76c-2.59-6.07-5.42-12.79-8.58-20a11.64,11.64,0,0,1-1.05-4.53,15.09,15.09,0,0,1,.24-1.94c.16-.89,1.46-1.87,3.8-2.76V3.89l-5.91.24c-1.7.08-3.4.16-4.93.16-3.16,0-6.24-.16-10.45-.4L0,4.53A8.9,8.9,0,0,1,3.24,6.8a22.35,22.35,0,0,1,3.4,6l25.83,60h.64c2.35-11.58,10-24.05,17.09-35.3L65.34,72.71h.73Q72.75,55.82,78,42.42C84,27.28,90,11.66,90.44,10.85,92.14,7,92.87,5.75,96.51,4.45ZM51.25,13.68a12.93,12.93,0,0,1-1.13-4.53,6.42,6.42,0,0,1,.16-1.3c.32-1.62,1.54-2.75,4-3.15,4.77-.41,10.2-.41,10.2,4.29-.08,3.8-3.32,9.63-7.94,17C53.92,19.84,51.9,15.06,51.25,13.68Z"/>
        <path class="cls-1" d="M119.43,17.81c-18.62,0-27.37,13.93-27.37,27v.49c0,13.84,9.39,27.53,27.12,27.53a28.16,28.16,0,0,0,19.27-7.05,16.91,16.91,0,0,0,4.05-5.26,13.61,13.61,0,0,0,1.62-6.88,14.17,14.17,0,0,0-4.45-10.36c-3.32-3.08-8.42-5.27-15.55-5.35,9.56-1.7,18-3.24,20.65-3.64C140.88,24.61,132,17.81,119.43,17.81Zm22.42,30a12.77,12.77,0,0,1,1.38,5.91,29.71,29.71,0,0,1-.65,4.78c-.48,2.1-2,4.37-4.69,6.72A27.26,27.26,0,0,1,119.43,72c-6.8-.08-11.1-4.38-13.69-10.29s-3-12.06-3-16.59c0-1.14,0-2.19.08-3.32,4.94-.89,13-2.84,20.73-2.84S138.37,40.89,141.85,47.77Zm-26.39-9.15c-4.53.89-8.83,1.62-12.63,2.27.65-10,4.53-22.19,16.52-22.19,9.79,0,14.16,8,15.86,16.44C129.63,36.11,122.5,37.41,115.46,38.62Z"/>
        <path class="cls-1" d="M258,63.56V12.23c0-4.62.57-7.53,5.34-7.53V3.89c-4.93.32-7.85.48-10.84.48s-5.59-.16-10.21-.48V4.7c4.78,0,5.35,3.15,5.35,7.69-1,11.74-6.8,19.83-12,27.69-4.3,6.23-8.42,12.14-9.15,19.19a19.05,19.05,0,0,0-.08,2.1,15.41,15.41,0,0,0,.16,2.75L201.12,3.89H189.87l3,7.12V63.56c0,5.91-.65,8.42-6.4,8.42v.81a124.6,124.6,0,0,1,13.68,0V72c-5.83,0-6.39-1.62-6.39-8.42V13.12l25.18,59.67h11.25l-1-2.43a22.25,22.25,0,0,1-2-8.58c0-.25.08-1.14.16-2.68a21.51,21.51,0,0,1,1.7-6.31A36.78,36.78,0,0,1,233.35,45c5.18-7.53,11.66-15.87,14.25-27.13V62.75c0,5.91-.65,9.23-6.4,9.23v.81c1.05-.08,2.19-.08,3.48-.17,2.19-.08,5.19-.16,8.67-.16s7.28.08,11.09.33V72C259.09,72,258,69.3,258,63.56Z"/>
        <path class="cls-1" d="M319.66,56.76V38.54c0-.89-.08-1.86-.16-2.75-1.05-13.36-12.07-18-25.34-18-5.59,0-9.56,2.11-11.82,5.18a10.13,10.13,0,0,0-2.19,6.56,11.44,11.44,0,0,0,.89,4.13c1,2.92,4.37,5.83,9.31,6.8-10.77,1.94-20.08,6.07-20.08,16.36,0,10,6.72,16,19,16h.65c9.95-.08,16.43-4.94,19.43-13.44,0,10.36,4.77,13.36,15.95,13.36V71.9C319.26,71.9,319.66,64.45,319.66,56.76ZM309.3,50.28c0,15.06-7.53,20.48-16.92,20.48-8.18,0-11.66-5-11.66-13.19,0-17.41,18.54-17.33,28.58-17.33Zm-2.43-10.93a102.32,102.32,0,0,0-13,.65c-4.93,0-9.71-1.79-12-6.4a10.77,10.77,0,0,1-.89-3.72c0-7.45,6.24-11.18,12.95-11.18,11.58.25,15.06,8.75,15.31,20.65Z"/>
        <path class="cls-1" d="M366,42.67a13.64,13.64,0,0,0-7.37-2.11,17,17,0,0,0-3.32.41c5.58-4.54,13.2-7,17.49-14.66,3.48-5.5,4.69-7.12,11.09-7.77v-.73h-.24c-2.92.24-4.78.33-6.48.33-2,0-3.81-.09-6.72-.33l-.08.73c3,.65,3.16,2.19,3.16,3.24a5.14,5.14,0,0,1-.25,1.46c-2.67,6.8-7.93,10.36-13.11,13.36S349.86,43.32,348,50.2V0a55.6,55.6,0,0,1-15.62,3.72v.81c5.42.41,5.1,3.89,5.1,10.69V63.48c-.08,5.82-1.14,8.5-6.4,8.5v.81c3.89-.17,7.69-.25,11.5-.25s7.77.08,11.82.25V72c-5.1,0-6.32-2.51-6.4-8V56c.24-6.08,2.11-9.88,4.94-12.8a5,5,0,0,1,3.24-1.37,4.66,4.66,0,0,1,1.78.32c5.83,1.94,11.17,22.19,16,30.69,3.24,0,5.1-.08,7-.08h3.08c1.05,0,2.35,0,4,.08V72C377.31,65.42,375,48.17,366,42.67Z"/>
        <path class="cls-1" d="M433.83,43.32c-3.32-3.08-8.42-5.27-15.55-5.35,9.56-1.7,18-3.24,20.65-3.64-3.89-9.72-12.79-16.52-25.34-16.52-18.63,0-27.37,13.93-27.37,27v.49c0,13.84,9.39,27.53,27.12,27.53a28.17,28.17,0,0,0,19.27-7.05,16.91,16.91,0,0,0,4.05-5.26,13.61,13.61,0,0,0,1.62-6.88A14.17,14.17,0,0,0,433.83,43.32ZM413.5,18.7c9.8,0,14.17,8,15.87,16.44-5.58,1-12.71,2.27-19.75,3.48-4.54.89-8.83,1.62-12.63,2.27C397.64,30.93,401.52,18.7,413.5,18.7Zm23.24,39.76c-.48,2.1-2,4.37-4.69,6.72A27.26,27.26,0,0,1,413.59,72c-6.81-.08-11.1-4.38-13.69-10.29s-3-12.06-3-16.59c0-1.14,0-2.19.08-3.32,4.94-.89,13-2.84,20.73-2.84s14.81,2,18.29,8.83a12.9,12.9,0,0,1,1.38,5.91A29.71,29.71,0,0,1,436.74,58.46Z"/>
      </g>
    </g>
  </g>
</svg>
